<?xml version="1.0" encoding="UTF-8" standalone="no"?>
<svg
   xmlns:dc="http://purl.org/dc/elements/1.1/"
   xmlns:cc="http://creativecommons.org/ns#"
   xmlns:rdf="http://www.w3.org/1999/02/22-rdf-syntax-ns#"
   xmlns:svg="http://www.w3.org/2000/svg"
   xmlns="http://www.w3.org/2000/svg"
   viewBox="0 0 1440 1440"
   height="1440"
   width="1440"
   xml:space="preserve"
   id="svg2"
   version="1.1"><metadata
     id="metadata8"><rdf:RDF><cc:Work
         rdf:about=""><dc:format>image/svg+xml</dc:format><dc:type
           rdf:resource="http://purl.org/dc/dcmitype/StillImage" /></cc:Work></rdf:RDF></metadata><defs
     id="defs6"><clipPath
       id="clipPath20"
       clipPathUnits="userSpaceOnUse"><path
         id="path18"
         d="M 0,1080 H 1080 V 0 H 0 Z" /></clipPath></defs><g
     transform="matrix(1.3333333,0,0,-1.3333333,0,1440)"
     id="g10"><path
       id="path12"
       style="fill:#ffffff;fill-opacity:1;fill-rule:nonzero;stroke:none"
       d="M 0,0 H 1080 V 1080 H 0 Z" /><g
       id="g14"><g
         clip-path="url(#clipPath20)"
         id="g16"><g
           transform="translate(362.8579,520.8203)"
           id="g22"><path
             id="path24"
             style="fill:#231f20;fill-opacity:1;fill-rule:nonzero;stroke:none"
             d="M 0,0 C 9.964,2.934 19.084,5.619 29.971,8.824 14.049,8.042 0.145,6.172 -13.619,6.912 c -36.246,1.949 -68.819,13.327 -94.145,40.868 -29.88,32.49 -29.919,88.303 0.083,118.075 11.984,11.893 26.297,18.08 43.301,13.813 6.14,-1.541 11.698,-5.4 17.521,-8.202 -0.328,-0.715 -0.657,-1.429 -0.985,-2.144 -0.772,0.22 -1.616,0.305 -2.305,0.677 -15.945,8.606 -30.353,4.908 -43.498,-5.919 -10.476,-8.629 -17.566,-19.584 -20.268,-33.116 -5.822,-29.161 14.83,-51.876 44.354,-48.64 16.091,1.764 31.285,7.074 44.456,16.053 18.62,12.694 36.411,26.654 54.104,40.644 17.438,13.788 34.641,27.725 56.703,33.623 17.627,4.712 35.09,3.825 52.203,-2.101 23.784,-8.237 36.884,-25.748 42.078,-50.753 0.827,1.773 1.518,2.777 1.776,3.882 8.271,35.366 35.097,50.1 67.222,51.803 23.2,1.23 42.959,-7.579 60.3,-22.108 13.716,-11.493 26.646,-23.919 40.238,-35.567 19.263,-16.508 40.691,-29.223 65.662,-35.054 4.963,-1.159 10.211,-1.775 15.296,-1.617 27.264,0.846 43.875,23.556 37.098,50.884 -4.087,16.477 -13.975,28.902 -28.832,37.049 -10.684,5.859 -21.774,6.199 -32.832,0.643 -1.321,-0.663 -2.654,-1.304 -4.202,-1.37 9.257,10.931 21.536,13.766 34.667,10.531 25.643,-6.316 39.342,-25.009 45.173,-49.238 C 493.252,80.994 469.035,36.463 420.724,15.943 390.985,3.313 360.195,1.103 328.207,6.45 c 6.191,-3.215 12.382,-6.429 19.681,-10.22 -19.315,-1.589 -37.182,-0.278 -54.905,3.512 -26.842,5.739 -51.673,16.15 -73.602,32.763 -18.175,13.771 -32.807,30.37 -38.433,53.41 -0.637,-0.288 -1.156,-0.372 -1.198,-0.561 C 171.876,49.396 147.386,28.708 115.012,15.715 79.257,1.366 41.752,-2.041 3.617,-0.703 2.757,-0.673 1.906,-0.38 0,0" /></g><g
           transform="translate(89,466.0029)"
           id="g26"><path
             id="path28"
             style="fill:#ffffff;fill-opacity:1;fill-rule:nonzero;stroke:#231f20;stroke-width:1;stroke-linecap:butt;stroke-linejoin:miter;stroke-miterlimit:10;stroke-dasharray:none;stroke-opacity:1"
             d="M 0,0 H 902" /></g><g
           transform="translate(723.5684,367.7256)"
           id="g30"><path
             id="path32"
             style="fill:#231f20;fill-opacity:1;fill-rule:nonzero;stroke:none"
             d="m 0,0 c -1.706,0.759 -2.876,1.422 -3.508,1.991 -0.632,0.569 -0.947,1.452 -0.947,2.654 0,0.948 0.393,1.848 1.184,2.702 0.79,0.852 1.912,1.279 3.366,1.279 0.631,0 1.232,-0.095 1.801,-0.284 0.568,-0.253 0.978,-0.379 1.232,-0.379 0.189,0 0.362,0.047 0.521,0.141 0.157,0.095 0.299,0.269 0.426,0.522 L 4.455,4.74 3.98,4.55 C 3.412,5.877 2.827,6.777 2.228,7.252 1.626,7.726 0.853,7.963 -0.095,7.963 -1.296,7.963 -2.118,7.631 -2.56,6.967 -3.002,6.304 -3.223,5.593 -3.223,4.835 c 0,-0.696 0.204,-1.25 0.617,-1.662 0.41,-0.412 1.531,-1.028 3.364,-1.85 1.516,-0.615 2.606,-1.318 3.27,-2.109 0.663,-0.792 0.995,-1.727 0.995,-2.804 0,-1.14 -0.395,-2.155 -1.184,-3.042 -0.791,-0.887 -1.943,-1.33 -3.46,-1.33 -0.633,0 -1.201,0.126 -1.706,0.379 -0.569,0.19 -1.012,0.285 -1.327,0.285 -0.19,0 -0.379,-0.064 -0.569,-0.19 -0.189,-0.127 -0.412,-0.284 -0.664,-0.474 l -0.758,4.645 0.569,0.189 c 0.441,-1.58 1.057,-2.67 1.848,-3.269 0.79,-0.602 1.69,-0.901 2.702,-0.901 1.074,0 1.88,0.316 2.417,0.947 0.536,0.631 0.805,1.548 0.805,2.749 0,0.631 -0.3,1.248 -0.9,1.847 C 2.194,-1.155 1.263,-0.57 0,0" /></g><g
           transform="translate(736.1748,376.3516)"
           id="g34"><path
             id="path36"
             style="fill:#231f20;fill-opacity:1;fill-rule:nonzero;stroke:none"
             d="m 0,0 c 0.315,0 0.6,-0.111 0.854,-0.332 0.25,-0.222 0.378,-0.49 0.378,-0.806 0,-0.316 -0.128,-0.6 -0.378,-0.852 C 0.6,-2.244 0.315,-2.369 0,-2.369 c -0.316,0 -0.602,0.125 -0.853,0.379 -0.253,0.252 -0.379,0.536 -0.379,0.852 0,0.316 0.126,0.584 0.379,0.806 C -0.602,-0.111 -0.316,0 0,0 m -0.758,-7.253 c 0,0.252 -0.064,0.456 -0.19,0.613 -0.127,0.158 -0.348,0.236 -0.663,0.236 l -1.991,0.049 v 0.573 l 0.948,0.017 c 0.569,-0.011 1.105,0.031 1.611,0.125 0.506,0.095 0.98,0.268 1.422,0.522 h 0.189 v -9.953 c 0,-0.253 0.079,-0.443 0.238,-0.569 0.157,-0.128 0.363,-0.189 0.616,-0.189 h 1.99 v -0.569 h -7.014 v 0.569 h 1.991 c 0.315,0 0.536,0.061 0.663,0.187 0.126,0.126 0.19,0.315 0.19,0.567 z" /></g><g
           transform="translate(742.9053,359.9531)"
           id="g38"><path
             id="path40"
             style="fill:#231f20;fill-opacity:1;fill-rule:nonzero;stroke:none"
             d="m 0,0 v 0.569 h 0.474 c 0.315,0 0.536,0.062 0.663,0.19 0.126,0.126 0.189,0.315 0.189,0.568 v 8.152 c 0,0.19 -0.032,0.332 -0.095,0.426 C 1.168,10 1.042,10.048 0.853,10.048 H 0.095 v 0.568 h 0.663 c 0.315,0 0.616,0.031 0.9,0.095 0.284,0.062 0.553,0.189 0.806,0.38 H 2.653 V 8.91 c 0.57,0.631 1.138,1.106 1.706,1.422 0.57,0.315 1.169,0.474 1.802,0.474 1.073,0 1.862,-0.285 2.369,-0.853 C 9.035,9.384 9.289,8.531 9.289,7.394 V 1.327 c 0,-0.253 0.078,-0.442 0.236,-0.568 0.158,-0.128 0.364,-0.19 0.617,-0.19 h 0.474 V 0 H 6.635 v 0.569 h 0.473 c 0.316,0 0.537,0.062 0.664,0.19 0.126,0.126 0.19,0.315 0.19,0.568 v 6.351 c 0,0.759 -0.159,1.342 -0.475,1.754 -0.316,0.41 -0.79,0.616 -1.421,0.616 -0.569,0 -1.154,-0.19 -1.754,-0.569 C 3.711,9.1 3.158,8.563 2.653,7.867 V 1.327 C 2.653,1.074 2.732,0.885 2.891,0.759 3.048,0.631 3.253,0.569 3.507,0.569 H 3.98 V 0 Z" /></g><g
           transform="translate(762.4307,368.0107)"
           id="g42"><path
             id="path44"
             style="fill:#231f20;fill-opacity:1;fill-rule:nonzero;stroke:none"
             d="m 0,0 c 0,0.189 0.031,0.315 0.095,0.379 0,0.062 0.031,0.189 0.095,0.379 0.062,0.252 -0.064,0.553 -0.379,0.9 -0.317,0.347 -0.853,0.522 -1.612,0.522 -0.947,0 -1.753,-0.459 -2.417,-1.374 -0.663,-0.917 -0.995,-2.133 -0.995,-3.65 0,-1.39 0.284,-2.511 0.854,-3.365 0.568,-0.853 1.516,-1.279 2.842,-1.279 0.885,0 1.627,0.284 2.228,0.852 0.601,0.57 1.026,1.233 1.28,1.991 l 0.474,-0.19 C 2.212,-5.782 1.737,-6.588 1.043,-7.252 0.347,-7.915 -0.601,-8.247 -1.801,-8.247 c -1.516,0 -2.718,0.474 -3.601,1.422 -0.886,0.948 -1.327,2.305 -1.327,4.076 0,1.578 0.473,2.891 1.421,3.934 0.949,1.043 2.18,1.563 3.697,1.563 C -0.537,2.748 0.3,2.464 0.9,1.896 1.501,1.326 1.802,0.758 1.802,0.189 1.802,-0.19 1.722,-0.46 1.564,-0.616 1.406,-0.775 1.169,-0.854 0.854,-0.854 0.601,-0.854 0.395,-0.775 0.237,-0.616 0.079,-0.46 0,-0.254 0,0" /></g><g
           transform="translate(775.5117,365.8301)"
           id="g46"><path
             id="path48"
             style="fill:#231f20;fill-opacity:1;fill-rule:nonzero;stroke:none"
             d="m 0,0 c 0.062,1.39 -0.175,2.448 -0.711,3.176 -0.537,0.725 -1.248,1.09 -2.133,1.09 -0.947,0 -1.722,-0.379 -2.322,-1.138 C -5.768,2.37 -6.066,1.327 -6.066,0 Z m -6.066,-0.568 c 0,-1.706 0.332,-2.924 0.995,-3.65 0.664,-0.727 1.531,-1.09 2.606,-1.09 0.821,0 1.517,0.237 2.086,0.711 0.568,0.474 0.979,1.057 1.233,1.753 L 1.327,-3.033 C 1.138,-3.729 0.711,-4.407 0.048,-5.071 c -0.664,-0.663 -1.565,-0.995 -2.702,-0.995 -1.454,0 -2.639,0.473 -3.555,1.421 -0.916,0.949 -1.374,2.306 -1.374,4.077 0,1.578 0.458,2.89 1.374,3.933 0.916,1.043 2.038,1.564 3.365,1.564 1.2,0 2.242,-0.411 3.128,-1.232 0.885,-0.822 1.327,-2.244 1.327,-4.265 z" /></g><g
           transform="translate(799.4932,372.1807)"
           id="g50"><path
             id="path52"
             style="fill:#231f20;fill-opacity:1;fill-rule:nonzero;stroke:none"
             d="m 0,0 c 0,1.138 -0.254,2.006 -0.759,2.607 -0.506,0.6 -1.264,0.901 -2.274,0.901 -0.759,0 -1.407,-0.206 -1.944,-0.616 -0.537,-0.413 -0.805,-0.934 -0.805,-1.565 0,-0.379 0.126,-0.696 0.379,-0.947 0.189,-0.254 0.284,-0.507 0.284,-0.759 0,-0.316 -0.079,-0.554 -0.236,-0.711 -0.159,-0.158 -0.396,-0.237 -0.711,-0.237 -0.379,0 -0.68,0.11 -0.901,0.332 -0.222,0.221 -0.332,0.584 -0.332,1.09 0,1.327 0.474,2.338 1.422,3.033 0.948,0.695 1.958,1.043 3.033,1.043 1.517,0 2.638,-0.379 3.365,-1.138 0.726,-0.758 1.09,-1.706 1.09,-2.844 0,-0.757 -0.174,-1.516 -0.521,-2.274 -0.348,-0.759 -0.901,-1.485 -1.659,-2.18 -1.833,-1.77 -3.239,-3.208 -4.218,-4.313 -0.981,-1.107 -1.564,-1.849 -1.753,-2.228 h 5.592 c 0.569,0 1.043,0.221 1.422,0.664 0.379,0.442 0.63,1.105 0.758,1.991 h 0.569 l -0.569,-4.077 h -8.815 v 1.233 c 0.315,0.568 0.837,1.295 1.563,2.181 0.726,0.883 1.691,1.926 2.892,3.127 1.073,1.074 1.863,2.085 2.369,3.034 C -0.254,-1.706 0,-0.821 0,0" /></g><g
           transform="translate(808.877,375.5937)"
           id="g54"><path
             id="path56"
             style="fill:#231f20;fill-opacity:1;fill-rule:nonzero;stroke:none"
             d="m 0,0 c -0.886,0 -1.628,-0.681 -2.228,-2.038 -0.601,-1.36 -0.9,-3.176 -0.9,-5.45 0,-2.403 0.299,-4.266 0.9,-5.593 0.6,-1.327 1.342,-1.99 2.228,-1.99 0.948,0 1.689,0.663 2.228,1.99 0.536,1.327 0.805,3.19 0.805,5.593 0,2.274 -0.253,4.09 -0.758,5.45 C 1.769,-0.681 1.01,0 0,0 m 0,-15.83 c -1.391,0 -2.56,0.726 -3.507,2.181 -0.948,1.452 -1.422,3.506 -1.422,6.161 0,2.464 0.457,4.455 1.374,5.971 C -2.64,0 -1.454,0.758 0,0.758 c 1.39,0 2.543,-0.728 3.46,-2.18 0.915,-1.455 1.374,-3.476 1.374,-6.066 0,-2.592 -0.459,-4.63 -1.374,-6.115 C 2.543,-15.088 1.39,-15.83 0,-15.83" /></g><g
           transform="translate(821.0098,375.5937)"
           id="g58"><path
             id="path60"
             style="fill:#231f20;fill-opacity:1;fill-rule:nonzero;stroke:none"
             d="m 0,0 c -0.886,0 -1.628,-0.681 -2.228,-2.038 -0.601,-1.36 -0.9,-3.176 -0.9,-5.45 0,-2.403 0.299,-4.266 0.9,-5.593 0.6,-1.327 1.342,-1.99 2.228,-1.99 0.948,0 1.689,0.663 2.228,1.99 0.536,1.327 0.805,3.19 0.805,5.593 0,2.274 -0.253,4.09 -0.758,5.45 C 1.769,-0.681 1.01,0 0,0 m 0,-15.83 c -1.391,0 -2.56,0.726 -3.507,2.181 -0.948,1.452 -1.422,3.506 -1.422,6.161 0,2.464 0.457,4.455 1.374,5.971 C -2.64,0 -1.454,0.758 0,0.758 c 1.39,0 2.543,-0.728 3.46,-2.18 0.915,-1.455 1.374,-3.476 1.374,-6.066 0,-2.592 -0.459,-4.63 -1.374,-6.115 C 2.543,-15.088 1.39,-15.83 0,-15.83" /></g><g
           transform="translate(834.1855,374.0518)"
           id="g62"><path
             id="path64"
             style="fill:#231f20;fill-opacity:1;fill-rule:nonzero;stroke:none"
             d="m 0,0 -5.403,-8.601 h 5.498 l 0,8.601 z m 1.611,-12.298 c 0,-0.442 0.126,-0.758 0.379,-0.947 0.252,-0.19 0.6,-0.284 1.043,-0.284 h 0.853 v -0.57 H -2.37 v 0.57 h 1.043 c 0.505,0 0.868,0.094 1.09,0.284 0.22,0.189 0.332,0.505 0.332,0.947 v 3.129 h -6.351 v 0.474 L 0.663,2.3 H 1.611 V -8.601 H 4.17 V -9.169 H 1.611 Z" /></g><g
           transform="translate(842.2422,359.6689)"
           id="g66"><path
             id="path68"
             style="fill:#231f20;fill-opacity:1;fill-rule:nonzero;stroke:none"
             d="m 0,0 c -0.379,0 -0.711,0.126 -0.995,0.379 -0.284,0.252 -0.427,0.6 -0.427,1.043 0,0.441 0.143,0.789 0.427,1.043 C -0.711,2.717 -0.379,2.844 0,2.844 0.379,2.844 0.711,2.701 0.995,2.417 1.279,2.133 1.422,1.801 1.422,1.422 1.422,0.979 1.279,0.631 0.995,0.379 0.711,0.126 0.379,0 0,0" /></g><g
           transform="translate(703.625,408.4551)"
           id="g70"><path
             id="path72"
             style="fill:#231f20;fill-opacity:1;fill-rule:nonzero;stroke:none"
             d="M 0,0 C 0.428,0.042 0.779,-0.024 0.91,0.115 1.05,0.267 0.982,0.611 1.006,0.871 0.729,0.889 0.4,1.001 0.192,0.89 0.052,0.813 0.08,0.423 0,0 m -8.056,11.25 c 0.694,-0.63 1.428,-1.072 2.381,-0.795 0.831,0.242 1.219,0.887 1.39,1.68 0.301,1.404 -0.438,3.086 -1.656,3.817 -1.248,0.749 -2.607,0.244 -3.012,-1.152 -0.395,-1.359 0.046,-2.525 0.897,-3.55 M -4.588,9.951 C -3.551,8.436 -2.476,6.961 -1.512,5.418 -0.977,4.562 -0.16,4.101 0.591,3.534 1.033,3.2 1.374,2.844 1.5,2.267 c 1.094,-4.998 2.22,-9.99 3.31,-14.989 0.282,-1.295 0.485,-2.606 0.694,-3.915 0.067,-0.421 0.038,-0.856 -0.089,-1.311 -0.065,0.16 -0.141,0.315 -0.194,0.478 -2.016,6.052 -4.116,12.077 -6.007,18.167 -0.931,2.992 -2.308,5.697 -4.07,8.246 -0.289,0.417 -0.536,0.675 -1.132,0.575 -0.858,-0.145 -1.616,0.236 -2.293,0.762 -1.481,1.152 -2.121,3.401 -1.393,5.101 0.184,0.428 0.192,0.753 -0.142,1.05 -0.415,0.368 -0.841,0.729 -1.293,1.049 -0.262,0.186 -0.513,0.33 -0.259,0.67 0.214,0.289 0.508,0.486 0.844,0.206 0.379,-0.316 0.73,-0.67 1.068,-1.032 0.208,-0.221 0.368,-0.489 0.546,-0.73 2.048,1.01 3.522,0.611 4.829,-1.273 0.1,-0.144 0.224,-0.297 0.374,-0.379 0.507,-0.278 0.625,-0.669 0.43,-1.195 -0.055,-0.144 -0.088,-0.309 -0.08,-0.463 0.07,-1.481 -0.18,-2.191 -1.231,-3.333" /></g><g
           transform="translate(712.9131,419.3213)"
           id="g74"><path
             id="path76"
             style="fill:#231f20;fill-opacity:1;fill-rule:nonzero;stroke:none"
             d="M 0,0 C 1.056,1.07 1.5,2.269 1.138,3.676 0.779,5.067 -0.534,5.626 -1.782,4.917 -3.048,4.198 -3.597,3.039 -3.625,1.613 -3.646,0.595 -3.12,-0.27 -2.241,-0.601 -1.329,-0.944 -0.592,-0.595 0,0 m -6.968,-9.349 c -0.31,0.794 -0.61,1.562 -0.939,2.403 1.392,0.627 1.876,2.237 2.851,3.434 0.624,0.765 1.157,1.604 1.755,2.446 -1.038,0.944 -1.338,2.12 -1.17,3.451 0.016,0.126 -0.111,0.267 -0.099,0.396 0.028,0.312 -0.002,0.704 0.173,0.914 0.478,0.576 1.017,1.114 1.593,1.594 0.915,0.763 1.975,1.079 3.125,0.607 C 1.443,5.434 2.008,4.496 2.109,3.329 2.27,1.493 1.634,-0.006 0.02,-0.999 -0.681,-1.43 -1.425,-1.69 -2.282,-1.528 c -0.165,0.031 -0.44,-0.15 -0.561,-0.31 -1.748,-2.298 -3.251,-4.734 -4.125,-7.511" /></g><g
           transform="translate(702.7324,407.6348)"
           id="g78"><path
             id="path80"
             style="fill:#231f20;fill-opacity:1;fill-rule:nonzero;stroke:none"
             d="m 0,0 c 0.408,-1.233 0.776,-2.323 1.125,-3.42 0.04,-0.123 0,-0.288 -0.046,-0.419 -1.549,-4.392 -3.101,-8.783 -4.655,-13.174 -0.006,-0.017 -0.024,-0.03 -0.171,-0.209 0.005,0.497 -0.045,0.851 0.019,1.182 0.375,1.93 0.731,3.866 1.18,5.78 0.767,3.266 1.598,6.517 2.402,9.774 C -0.118,-0.374 -0.079,-0.264 0,0" /></g><g
           transform="translate(570.4492,416.0264)"
           id="g82"><path
             id="path84"
             style="fill:#231f20;fill-opacity:1;fill-rule:nonzero;stroke:none"
             d="M 0,0 V 0.863 H 11.5 V 0 H 8.193 C 7.811,0 7.498,-0.096 7.26,-0.287 7.02,-0.48 6.9,-0.768 6.9,-1.149 v -20.556 c 0,-0.384 0.12,-0.671 0.36,-0.862 0.238,-0.193 0.551,-0.287 0.933,-0.287 H 11.5 v -0.863 H 0 v 0.863 h 3.307 c 0.478,0 0.812,0.094 1.005,0.287 0.192,0.191 0.288,0.478 0.288,0.862 V -1.149 C 4.6,-0.768 4.504,-0.48 4.312,-0.287 4.119,-0.096 3.785,0 3.307,0 Z" /></g><g
           transform="translate(590.7168,416.8896)"
           id="g86"><path
             id="path88"
             style="fill:#231f20;fill-opacity:1;fill-rule:nonzero;stroke:none"
             d="M 0,0 C 0.863,0 1.676,0.094 2.444,0.287 3.21,0.478 3.929,0.766 4.6,1.149 h 0.288 v -23.717 c 0,-0.384 0.119,-0.671 0.359,-0.863 0.238,-0.192 0.55,-0.287 0.935,-0.287 H 9.488 V -24.58 H -1.725 v 0.862 h 3.307 c 0.479,0 0.813,0.095 1.006,0.287 0.191,0.192 0.287,0.479 0.287,0.863 v 20.555 c 0,0.382 -0.096,0.669 -0.287,0.863 -0.193,0.191 -0.527,0.287 -1.006,0.287 H -1.58 l 0,0.863 z" /></g><g
           transform="translate(613.1406,417.1768)"
           id="g90"><path
             id="path92"
             style="fill:#231f20;fill-opacity:1;fill-rule:nonzero;stroke:none"
             d="M 0,0 C 0.479,0 0.91,-0.169 1.294,-0.503 1.676,-0.84 1.869,-1.246 1.869,-1.725 1.869,-2.206 1.676,-2.637 1.294,-3.019 0.91,-3.402 0.479,-3.594 0,-3.594 c -0.48,0 -0.912,0.192 -1.293,0.575 -0.385,0.382 -0.575,0.813 -0.575,1.294 0,0.479 0.19,0.885 0.575,1.222 C -0.912,-0.169 -0.48,0 0,0 m -1.149,-10.999 c 0,0.382 -0.097,0.692 -0.288,0.931 -0.193,0.237 -0.528,0.356 -1.006,0.356 l -3.019,0.074 v 0.869 l 1.438,0.028 c 0.862,-0.019 1.675,0.045 2.444,0.188 0.766,0.144 1.484,0.407 2.155,0.791 h 0.288 v -15.093 c 0,-0.384 0.119,-0.671 0.36,-0.863 0.238,-0.192 0.549,-0.287 0.933,-0.287 h 3.02 v -0.862 H -5.462 v 0.862 h 3.019 c 0.478,0 0.813,0.095 1.006,0.285 0.191,0.191 0.288,0.477 0.288,0.859 z" /></g><g
           transform="translate(635.2773,417.1768)"
           id="g94"><path
             id="path96"
             style="fill:#231f20;fill-opacity:1;fill-rule:nonzero;stroke:none"
             d="M 0,0 C 0.574,0 1.029,-0.169 1.365,-0.503 1.7,-0.84 1.869,-1.246 1.869,-1.725 1.869,-2.206 1.7,-2.637 1.365,-3.019 1.029,-3.402 0.574,-3.594 0,-3.594 c -0.48,0 -0.912,0.192 -1.294,0.575 -0.384,0.382 -0.575,0.813 -0.575,1.294 0,0.479 0.191,0.885 0.575,1.222 C -0.912,-0.169 -0.48,0 0,0 m 1.15,-23.43 c 0,-2.203 -0.671,-3.881 -2.012,-5.031 -1.343,-1.15 -2.972,-1.725 -4.888,-1.725 -1.533,0 -2.659,0.241 -3.377,0.719 -0.719,0.481 -1.078,1.056 -1.078,1.725 0,0.384 0.118,0.696 0.359,0.934 0.238,0.241 0.597,0.36 1.078,0.36 0.478,0 0.79,-0.145 0.934,-0.432 0.144,-0.287 0.263,-0.575 0.359,-0.862 0.192,-0.575 0.432,-0.935 0.719,-1.078 0.287,-0.144 0.766,-0.216 1.438,-0.216 1.531,0 2.659,0.409 3.378,1.224 0.718,0.82 1.078,2.091 1.078,3.821 v 13.116 c 0,0.384 -0.097,0.696 -0.288,0.937 -0.194,0.24 -0.528,0.361 -1.006,0.361 l -2.875,-0.061 v 0.869 l 1.294,0.014 c 0.862,-0.009 1.674,0.059 2.443,0.202 0.767,0.144 1.485,0.407 2.156,0.791 H 1.15 Z" /></g><g
           transform="translate(644.6211,396.6221)"
           id="g98"><path
             id="path100"
             style="fill:#231f20;fill-opacity:1;fill-rule:nonzero;stroke:none"
             d="m 0,0 c 0,-0.863 0.262,-1.653 0.79,-2.372 0.525,-0.719 1.365,-1.078 2.516,-1.078 0.862,0 1.724,0.166 2.587,0.503 0.863,0.335 1.772,0.838 2.731,1.51 V 5.318 C 5.365,4.934 3.112,4.287 1.868,3.378 0.621,2.466 0,1.341 0,0 m 3.018,-4.456 c -1.725,0 -3.068,0.406 -4.025,1.222 -0.959,0.812 -1.437,1.747 -1.437,2.802 0,1.725 0.741,3.138 2.227,4.241 1.486,1.1 4.432,1.891 8.841,2.372 v 1.724 c 0,0.957 -0.216,1.747 -0.647,2.372 -0.431,0.622 -1.415,0.934 -2.947,0.934 -1.63,0 -2.78,-0.265 -3.45,-0.79 C 0.909,9.893 0.668,9.343 0.861,8.768 0.956,8.574 1.006,8.384 1.006,8.192 1.006,8 0.934,7.762 0.79,7.474 0.646,7.187 0.287,7.043 -0.288,7.043 c -0.384,0 -0.696,0.119 -0.935,0.359 -0.24,0.239 -0.359,0.598 -0.359,1.078 0,0.863 0.623,1.676 1.869,2.444 1.244,0.765 2.777,1.15 4.6,1.15 1.916,0 3.353,-0.359 4.312,-1.078 0.957,-0.719 1.438,-1.75 1.438,-3.091 v -9.487 c 0,-0.768 0.071,-1.222 0.215,-1.365 0.144,-0.144 0.406,-0.216 0.791,-0.216 0.478,0 0.812,0.216 1.005,0.647 0.192,0.431 0.288,1.029 0.288,1.797 h 0.718 c 0,-1.344 -0.24,-2.278 -0.718,-2.803 -0.481,-0.528 -1.102,-0.79 -1.869,-0.79 -0.671,0 -1.199,0.143 -1.581,0.43 C 9.103,-3.594 8.814,-3.115 8.624,-2.444 7.665,-3.115 6.777,-3.619 5.965,-3.953 5.149,-4.29 4.168,-4.456 3.018,-4.456" /></g><g
           transform="translate(686.5937,393.1719)"
           id="g102"><path
             id="path104"
             style="fill:#231f20;fill-opacity:1;fill-rule:nonzero;stroke:none"
             d="m 0,0 c 1.628,0 2.896,0.503 3.809,1.509 0.91,1.007 1.365,2.419 1.365,4.241 0,2.106 -0.481,3.665 -1.437,4.671 -0.96,1.007 -2.396,1.51 -4.312,1.51 H -3.881 V 1.149 c 0,-0.383 0.119,-0.67 0.36,-0.862 C -3.283,0.095 -2.972,0 -2.588,0 Z m 4.312,18.111 c 0,1.725 -0.48,2.948 -1.437,3.665 -0.959,0.719 -2.206,1.078 -3.738,1.078 h -1.725 c -0.384,0 -0.695,-0.095 -0.933,-0.287 -0.241,-0.193 -0.36,-0.48 -0.36,-0.862 v -8.912 h 3.736 c 1.054,0 2.061,0.432 3.02,1.294 0.957,0.862 1.437,2.203 1.437,4.024 M -8.625,-0.862 V 0 h 1.15 c 0.479,0 0.813,0.095 1.006,0.287 0.192,0.192 0.287,0.479 0.287,0.862 v 20.556 c 0,0.382 -0.095,0.669 -0.287,0.862 -0.193,0.192 -0.527,0.287 -1.006,0.287 h -0.863 v 0.864 H 0 c 2.3,0 4,-0.456 5.103,-1.366 1.1,-0.913 1.653,-2.325 1.653,-4.241 0,-1.342 -0.287,-2.443 -0.863,-3.305 C 5.318,13.943 4.119,13.175 2.3,12.506 4.503,11.834 5.987,10.875 6.756,9.631 7.521,8.384 7.906,6.994 7.906,5.462 7.906,3.544 7.234,2.013 5.893,0.862 4.551,-0.287 2.73,-0.862 0.432,-0.862 Z" /></g><g
           transform="translate(721.5234,403.9521)"
           id="g106"><path
             id="path108"
             style="fill:#231f20;fill-opacity:1;fill-rule:nonzero;stroke:none"
             d="m 0,0 c 0.956,1.532 1.986,2.707 3.09,3.522 1.1,0.813 2.228,1.222 3.378,1.222 0.956,0 1.7,-0.216 2.227,-0.647 C 9.221,3.666 9.486,3.163 9.486,2.588 9.486,2.107 9.365,1.726 9.127,1.437 8.887,1.15 8.527,1.007 8.049,1.007 7.568,1.007 7.209,1.15 6.971,1.437 6.73,1.726 6.658,2.107 6.756,2.588 6.756,2.875 6.705,3.113 6.611,3.307 6.515,3.497 6.228,3.594 5.749,3.594 4.98,3.594 4.047,3.113 2.945,2.156 1.844,1.197 0.861,-0.144 0,-1.868 v -7.763 c 0,-0.384 0.118,-0.671 0.359,-0.862 0.238,-0.193 0.549,-0.287 0.934,-0.287 h 3.162 v -0.863 H -6.182 v 0.863 h 2.875 c 0.479,0 0.813,0.094 1.006,0.287 0.192,0.191 0.287,0.478 0.287,0.862 V 2.3 c 0,0.382 -0.095,0.694 -0.287,0.934 -0.193,0.239 -0.527,0.36 -1.006,0.36 h -2.731 v 0.862 h 1.15 c 0.669,0 1.46,0.072 2.372,0.216 0.91,0.143 1.604,0.309 2.084,0.503 l 0.432,0 z" /></g><g
           transform="translate(737.6211,397.0527)"
           id="g110"><path
             id="path112"
             style="fill:#231f20;fill-opacity:1;fill-rule:nonzero;stroke:none"
             d="m 0,0 c 0,-1.056 0.359,-1.965 1.078,-2.731 0.719,-0.768 1.797,-1.15 3.234,-1.15 1.726,0 2.948,0.598 3.667,1.797 0.718,1.197 1.078,2.994 1.078,5.391 0,2.299 -0.313,4.047 -0.935,5.246 C 7.498,9.75 6.516,10.35 5.176,10.35 4.025,10.35 3.02,10.013 2.156,9.344 1.295,8.672 0.576,7.475 0,5.75 Z m 0,8.05 c 0.479,1.053 1.245,1.89 2.301,2.515 1.053,0.623 2.059,0.934 3.018,0.934 2.013,0 3.522,-0.696 4.529,-2.084 1.006,-1.39 1.508,-3.427 1.508,-6.108 0,-2.685 -0.647,-4.722 -1.94,-6.11 -1.294,-1.39 -2.9,-2.084 -4.815,-2.084 -0.959,0 -1.847,0.166 -2.66,0.503 -0.815,0.334 -1.509,0.79 -2.084,1.365 l -1.294,-1.724 h -0.575 v 22.567 c 0,0.382 -0.096,0.669 -0.287,0.863 -0.193,0.191 -0.528,0.287 -1.006,0.287 h -0.863 v 0.863 h 1.294 c 0.478,0 0.956,0.094 1.437,0.287 0.478,0.19 0.957,0.479 1.437,0.862 z" /></g><g
           transform="translate(764.7891,401.2217)"
           id="g114"><path
             id="path116"
             style="fill:#231f20;fill-opacity:1;fill-rule:nonzero;stroke:none"
             d="M 0,0 C 0.094,2.106 -0.266,3.712 -1.078,4.815 -1.894,5.916 -2.972,6.468 -4.312,6.468 -5.75,6.468 -6.924,5.894 -7.834,4.743 -8.746,3.593 -9.199,2.012 -9.199,0 Z m -9.199,-0.862 c 0,-2.588 0.503,-4.434 1.509,-5.534 1.006,-1.104 2.322,-1.654 3.953,-1.654 1.244,0 2.3,0.36 3.162,1.078 0.862,0.719 1.485,1.604 1.868,2.66 L 2.012,-4.6 C 1.725,-5.655 1.078,-6.685 0.072,-7.69 -0.935,-8.696 -2.3,-9.2 -4.025,-9.2 c -2.205,0 -4.002,0.719 -5.39,2.156 -1.391,1.438 -2.085,3.497 -2.085,6.182 0,2.393 0.694,4.383 2.085,5.965 1.388,1.581 3.091,2.372 5.103,2.372 1.819,0 3.4,-0.625 4.744,-1.87 1.339,-1.246 2.011,-3.402 2.011,-6.467 z" /></g><g
           transform="translate(776.7197,403.9521)"
           id="g118"><path
             id="path120"
             style="fill:#231f20;fill-opacity:1;fill-rule:nonzero;stroke:none"
             d="M 0,0 C 0.956,1.532 1.987,2.707 3.091,3.522 4.19,4.335 5.318,4.744 6.468,4.744 7.425,4.744 8.169,4.528 8.696,4.097 9.222,3.666 9.487,3.163 9.487,2.588 9.487,2.107 9.365,1.726 9.128,1.437 8.888,1.15 8.528,1.007 8.05,1.007 7.569,1.007 7.21,1.15 6.972,1.437 6.731,1.726 6.659,2.107 6.756,2.588 6.756,2.875 6.706,3.113 6.612,3.307 6.515,3.497 6.228,3.594 5.749,3.594 4.981,3.594 4.047,3.113 2.946,2.156 1.844,1.197 0.862,-0.144 0,-1.868 v -7.763 c 0,-0.384 0.118,-0.671 0.359,-0.862 0.238,-0.193 0.55,-0.287 0.935,-0.287 h 3.162 v -0.863 H -6.181 v 0.863 h 2.875 c 0.478,0 0.813,0.094 1.006,0.287 0.191,0.191 0.287,0.478 0.287,0.862 V 2.3 c 0,0.382 -0.096,0.694 -0.287,0.934 -0.193,0.239 -0.528,0.36 -1.006,0.36 h -2.732 v 0.862 h 1.15 c 0.67,0 1.46,0.072 2.372,0.216 0.91,0.143 1.604,0.309 2.084,0.503 l 0.432,0 z" /></g><g
           transform="translate(816.6797,417.3203)"
           id="g122"><path
             id="path124"
             style="fill:#231f20;fill-opacity:1;fill-rule:nonzero;stroke:none"
             d="m 0,0 v -21.849 c 0,-0.768 0.238,-1.342 0.719,-1.724 0.478,-0.385 1.15,-0.575 2.011,-0.575 h 1.438 v -0.863 H -6.324 v 0.863 h 1.293 c 0.957,0 1.653,0.19 2.084,0.575 0.431,0.382 0.647,0.956 0.647,1.724 v 17.393 c 0,0.382 -0.122,0.694 -0.359,0.935 -0.24,0.238 -0.6,0.359 -1.078,0.359 H -6.324 V -2.3 h 1.293 c 1.15,0 2.084,0.192 2.802,0.575 0.719,0.382 1.27,0.957 1.654,1.725 z" /></g><g
           transform="translate(829.041,402.084)"
           id="g126"><path
             id="path128"
             style="fill:#231f20;fill-opacity:1;fill-rule:nonzero;stroke:none"
             d="m 0,0 c 0,-2.875 0.504,-5.103 1.51,-6.685 1.006,-1.581 2.228,-2.371 3.666,-2.371 1.437,0 2.537,0.526 3.305,1.581 0.766,1.053 1.15,3.019 1.15,5.894 0,1.915 -0.408,3.4 -1.222,4.456 C 7.594,3.928 6.613,4.456 5.463,4.456 4.407,4.456 3.426,4.144 2.516,3.521 1.604,2.897 0.766,1.725 0,0 m 5.606,5.894 c 2.3,0 3.953,-0.769 4.959,-2.3 1.007,-1.534 1.509,-3.26 1.509,-5.175 0,-2.875 -0.695,-5.009 -2.084,-6.397 -1.39,-1.39 -2.996,-2.085 -4.814,-2.085 -2.588,0 -4.553,0.982 -5.895,2.948 -1.343,1.963 -2.011,4.815 -2.011,8.552 0,4.407 0.812,7.785 2.443,10.134 1.629,2.347 3.832,3.522 6.612,3.522 1.341,0 2.419,-0.384 3.234,-1.151 0.814,-0.767 1.222,-1.437 1.222,-2.011 0,-0.576 -0.121,-1.007 -0.359,-1.294 -0.24,-0.287 -0.647,-0.432 -1.223,-0.432 -0.48,0 -0.84,0.119 -1.077,0.359 -0.241,0.239 -0.359,0.598 -0.359,1.079 0,0.191 0.047,0.381 0.143,0.575 v 0.575 c 0,0.382 -0.143,0.694 -0.431,0.935 -0.288,0.237 -0.815,0.359 -1.58,0.359 -1.631,0 -3.02,-0.744 -4.17,-2.229 C 0.575,10.372 0,7.138 0,2.156 0.575,3.4 1.366,4.335 2.372,4.959 3.379,5.581 4.457,5.894 5.606,5.894" /></g></g></g></g></svg>